<?xml version="1.0" encoding="utf-8"?>
<!-- Generator: Adobe Illustrator 16.2.1, SVG Export Plug-In . SVG Version: 6.00 Build 0)  -->
<!DOCTYPE svg PUBLIC "-//W3C//DTD SVG 1.1//EN" "http://www.w3.org/Graphics/SVG/1.1/DTD/svg11.dtd">
<svg version="1.1" id="Layer_1" xmlns="http://www.w3.org/2000/svg" xmlns:xlink="http://www.w3.org/1999/xlink" x="0px" y="0px"
	 width="421.633px" height="65.655px" viewBox="0 0 421.633 65.655" enable-background="new 0 0 421.633 65.655"
	 xml:space="preserve">
<g>
	<g>
		<g>
			<path d="M62.856,8.545C49.171-0.848,30.46,2.633,21.069,16.32c-9.394,13.687-5.913,32.396,7.774,41.789
				c13.687,9.395,32.396,5.912,41.789-7.773C80.024,36.649,76.543,17.939,62.856,8.545z M47.829,48.139
				c-0.683-0.895-2.771-3.444-3.596-4.496c-0.162,0.073-0.327,0.137-0.5,0.181c-3.622,4.771-7.635,7.595-9.34,6.425
				c-1.689-1.159-0.536-5.842,2.546-10.882c-0.05-0.26-0.064-0.52-0.046-0.781c-1.233-0.335-4.562-1.316-5.67-1.641
				c-1.998-0.581-0.22-1.273-0.22-1.273l9.073-5.628c0.609-1.09,1.288-2.191,2.041-3.289c2.246-3.273,5.132-5.722,7.798-7.415
				c0.002-0.001,0.004-0.004,0.006-0.006c0.102-0.065,0.204-0.128,0.306-0.191c0.012-0.007,0.024-0.015,0.036-0.022
				c0.173-0.106,0.344-0.208,0.515-0.309c0.035-0.02,0.069-0.041,0.105-0.061c0.163-0.095,0.325-0.186,0.485-0.275
				c0.036-0.02,0.074-0.041,0.111-0.061c0.161-0.087,0.321-0.173,0.479-0.256c0.025-0.013,0.052-0.026,0.078-0.04
				c0.148-0.077,0.295-0.151,0.441-0.222c0.024-0.013,0.049-0.025,0.073-0.037c0.153-0.075,0.303-0.146,0.454-0.215
				c0.034-0.016,0.068-0.032,0.101-0.047c0.146-0.067,0.289-0.131,0.43-0.191c0.031-0.014,0.062-0.026,0.092-0.04
				c0.145-0.062,0.288-0.122,0.426-0.177c0.012-0.004,0.021-0.008,0.034-0.013c0.134-0.053,0.265-0.103,0.393-0.151
				c0.025-0.009,0.05-0.019,0.074-0.027c0.129-0.047,0.253-0.091,0.375-0.132c0.027-0.01,0.055-0.019,0.082-0.028
				c0.121-0.041,0.239-0.078,0.354-0.112c0.019-0.006,0.037-0.011,0.056-0.018c0.111-0.033,0.221-0.064,0.326-0.092
				c0.009-0.002,0.018-0.005,0.027-0.007c0.108-0.029,0.211-0.053,0.312-0.076c0.018-0.004,0.037-0.008,0.055-0.012
				c0.096-0.021,0.187-0.038,0.274-0.054c0.017-0.002,0.033-0.005,0.049-0.007c0.088-0.014,0.171-0.026,0.249-0.034
				c0.008,0,0.015-0.001,0.022-0.002c0.074-0.006,0.144-0.011,0.208-0.013c0.008,0,0.018-0.001,0.026-0.001
				c0.065-0.001,0.124,0.001,0.178,0.006c0.011,0.002,0.021,0.002,0.03,0.003c0.05,0.006,0.098,0.015,0.139,0.025
				c0.007,0.003,0.013,0.004,0.02,0.006c0.04,0.013,0.077,0.029,0.104,0.048c0.03,0.019,0.057,0.048,0.084,0.082
				c0.003,0.004,0.006,0.007,0.009,0.01c0.027,0.035,0.052,0.077,0.076,0.124c0.004,0.006,0.008,0.014,0.011,0.021
				c0.023,0.048,0.047,0.103,0.068,0.162c0.004,0.01,0.009,0.021,0.012,0.031c0.022,0.062,0.044,0.13,0.064,0.203
				c0.003,0.011,0.006,0.022,0.008,0.034c0.021,0.077,0.041,0.16,0.059,0.249c0.001,0.007,0.003,0.015,0.004,0.022
				c0.019,0.092,0.036,0.19,0.052,0.295c0.001,0.003,0.002,0.006,0.002,0.01c0.016,0.104,0.03,0.216,0.044,0.332
				c0.001,0.013,0.003,0.025,0.004,0.039c0.013,0.113,0.023,0.23,0.033,0.354c0.001,0.018,0.002,0.037,0.004,0.054
				c0.009,0.123,0.017,0.25,0.023,0.381c0,0.02,0.001,0.041,0.002,0.062c0.006,0.134,0.01,0.273,0.012,0.416
				c0,0.017,0,0.034,0,0.051c0.002,0.15,0.003,0.304,0,0.464c0,0.004,0,0.009,0,0.013c-0.002,0.163-0.006,0.332-0.013,0.503
				c0,0.009,0,0.017-0.001,0.026c-0.007,0.167-0.014,0.339-0.026,0.514c-0.001,0.021-0.001,0.041-0.004,0.062
				c-0.01,0.171-0.024,0.344-0.04,0.521c-0.002,0.026-0.004,0.053-0.007,0.079c-0.016,0.177-0.034,0.357-0.054,0.54
				c-0.002,0.025-0.005,0.052-0.009,0.078c-0.021,0.188-0.045,0.378-0.071,0.571c-0.002,0.018-0.005,0.036-0.006,0.055
				c-0.044,0.319-0.095,0.646-0.153,0.979c-0.01,0.062-0.023,0.124-0.034,0.185c-0.015,0.079-0.029,0.159-0.044,0.239
				c-0.01,0.053-0.02,0.105-0.03,0.159c0,0.003-0.002,0.005-0.003,0.009c-0.613,3.124-1.862,6.744-4.137,10.059
				c-0.775,1.129-1.583,2.187-2.405,3.171l-1.875,10.23C49.097,47.886,49.091,49.794,47.829,48.139z M40.253,29.661l0.021,0.014
				L40.232,29.7C40.246,29.674,40.253,29.661,40.253,29.661z M51.336,37.267c0,0-0.01,0.013-0.029,0.032l0.009-0.045L51.336,37.267z
				"/>
		</g>
		<g>
			<path fill="#FFFFFF" d="M61.856,7.545C48.171-1.848,29.46,1.633,20.069,15.32c-9.394,13.687-5.913,32.396,7.774,41.789
				c13.687,9.395,32.396,5.912,41.789-7.773C79.024,35.649,75.543,16.939,61.856,7.545z M46.829,47.139
				c-0.683-0.895-2.771-3.444-3.596-4.496c-0.162,0.073-0.327,0.137-0.5,0.181c-3.622,4.771-7.635,7.595-9.34,6.425
				c-1.689-1.159-0.536-5.842,2.546-10.882c-0.05-0.26-0.064-0.52-0.046-0.781c-1.233-0.335-4.562-1.316-5.67-1.641
				c-1.998-0.581-0.22-1.273-0.22-1.273l9.073-5.628c0.609-1.09,1.288-2.191,2.041-3.289c2.246-3.273,5.132-5.722,7.798-7.415
				c0.002-0.001,0.004-0.004,0.006-0.006c0.102-0.065,0.204-0.128,0.306-0.191c0.012-0.007,0.024-0.015,0.036-0.022
				c0.173-0.106,0.344-0.208,0.515-0.309c0.035-0.02,0.069-0.041,0.105-0.061c0.163-0.095,0.325-0.186,0.485-0.275
				c0.036-0.02,0.074-0.041,0.111-0.061c0.161-0.087,0.321-0.173,0.479-0.256c0.025-0.013,0.052-0.026,0.078-0.04
				c0.148-0.077,0.295-0.151,0.441-0.222c0.024-0.013,0.049-0.025,0.073-0.037c0.153-0.075,0.303-0.146,0.454-0.215
				c0.034-0.016,0.068-0.032,0.101-0.047c0.146-0.067,0.289-0.131,0.43-0.191c0.031-0.014,0.062-0.026,0.092-0.04
				c0.145-0.062,0.288-0.122,0.426-0.177c0.012-0.004,0.021-0.008,0.034-0.013c0.134-0.053,0.265-0.103,0.393-0.151
				c0.025-0.009,0.05-0.019,0.074-0.027c0.129-0.047,0.253-0.091,0.375-0.132c0.027-0.01,0.055-0.019,0.082-0.028
				c0.121-0.041,0.239-0.078,0.354-0.112c0.019-0.006,0.037-0.011,0.056-0.018c0.111-0.033,0.221-0.064,0.326-0.092
				c0.009-0.002,0.018-0.005,0.027-0.007c0.108-0.029,0.211-0.053,0.312-0.076c0.018-0.004,0.037-0.008,0.055-0.012
				c0.096-0.021,0.187-0.038,0.274-0.054c0.017-0.002,0.033-0.005,0.049-0.007c0.088-0.014,0.171-0.026,0.249-0.034
				c0.008,0,0.015-0.001,0.022-0.002c0.074-0.006,0.144-0.011,0.208-0.013c0.008,0,0.018-0.001,0.026-0.001
				c0.065-0.001,0.124,0.001,0.178,0.006c0.011,0.002,0.021,0.002,0.03,0.003c0.05,0.006,0.098,0.015,0.139,0.025
				c0.007,0.003,0.013,0.004,0.02,0.006c0.04,0.013,0.077,0.029,0.104,0.048c0.03,0.019,0.057,0.048,0.084,0.082
				c0.003,0.004,0.006,0.007,0.009,0.01c0.027,0.035,0.052,0.077,0.076,0.124c0.004,0.006,0.008,0.014,0.011,0.021
				c0.023,0.048,0.047,0.103,0.068,0.162c0.004,0.01,0.009,0.021,0.012,0.031c0.022,0.062,0.044,0.13,0.064,0.203
				c0.003,0.011,0.006,0.022,0.008,0.034c0.021,0.077,0.041,0.16,0.059,0.249c0.001,0.007,0.003,0.015,0.004,0.022
				c0.019,0.092,0.036,0.19,0.052,0.295c0.001,0.003,0.002,0.006,0.002,0.01c0.016,0.104,0.03,0.216,0.044,0.332
				c0.001,0.013,0.003,0.025,0.004,0.039c0.013,0.113,0.023,0.23,0.033,0.354c0.001,0.018,0.002,0.037,0.004,0.054
				c0.009,0.123,0.017,0.25,0.023,0.381c0,0.02,0.001,0.041,0.002,0.062c0.006,0.134,0.01,0.273,0.012,0.416
				c0,0.017,0,0.034,0,0.051c0.002,0.15,0.003,0.304,0,0.464c0,0.004,0,0.009,0,0.013c-0.002,0.163-0.006,0.332-0.013,0.503
				c0,0.009,0,0.017-0.001,0.026c-0.007,0.167-0.014,0.339-0.026,0.514c-0.001,0.021-0.001,0.041-0.004,0.062
				c-0.01,0.171-0.024,0.344-0.04,0.521c-0.002,0.026-0.004,0.053-0.007,0.079c-0.016,0.177-0.034,0.357-0.054,0.54
				c-0.002,0.025-0.005,0.052-0.009,0.078c-0.021,0.188-0.045,0.378-0.071,0.571c-0.002,0.018-0.005,0.036-0.006,0.055
				c-0.044,0.319-0.095,0.646-0.153,0.979c-0.01,0.062-0.023,0.124-0.034,0.185c-0.015,0.079-0.029,0.159-0.044,0.239
				c-0.01,0.053-0.02,0.105-0.03,0.159c0,0.003-0.002,0.005-0.003,0.009c-0.613,3.124-1.862,6.744-4.137,10.059
				c-0.775,1.129-1.583,2.187-2.405,3.171l-1.875,10.23C48.097,46.886,48.091,48.794,46.829,47.139z M39.253,28.661l0.021,0.014
				L39.232,28.7C39.246,28.674,39.253,28.661,39.253,28.661z M50.336,36.267c0,0-0.01,0.013-0.029,0.032l0.009-0.045L50.336,36.267z
				"/>
		</g>
	</g>
	<g>
		<g>
			<path d="M109.476,48.249h17.575v8.788H98.476V9.619h11V48.249z"/>
			<path d="M176.388,57.037h-8.527c-0.955,0-1.742-0.223-2.36-0.667s-1.047-1.015-1.286-1.709l-2.799-8.267h-18.029l-2.798,8.267
				c-0.218,0.607-0.64,1.155-1.27,1.644c-0.629,0.487-1.399,0.732-2.311,0.732h-8.592l18.355-47.417h11.261L176.388,57.037z
				 M145.925,38.909h12.953l-4.361-12.985c-0.282-0.825-0.613-1.795-0.992-2.913c-0.38-1.117-0.754-2.327-1.123-3.629
				c-0.348,1.324-0.706,2.55-1.074,3.678c-0.37,1.128-0.716,2.104-1.042,2.929L145.925,38.909z"/>
			<path d="M198.324,48.347c1.475,0,2.793-0.244,3.953-0.732s2.144-1.188,2.945-2.1c0.803-0.911,1.415-2.022,1.838-3.336
				c0.424-1.312,0.636-2.804,0.636-4.475V9.619h11v28.085c0,2.907-0.472,5.577-1.416,8.006c-0.944,2.431-2.294,4.524-4.052,6.281
				c-1.758,1.758-3.894,3.125-6.411,4.101c-2.517,0.978-5.348,1.465-8.493,1.465c-3.169,0-6.011-0.487-8.527-1.465
				c-2.517-0.976-4.655-2.343-6.412-4.101c-1.757-1.757-3.103-3.851-4.035-6.281c-0.934-2.429-1.399-5.099-1.399-8.006V9.619h11
				v28.052c0,1.672,0.212,3.164,0.635,4.476c0.422,1.312,1.035,2.431,1.839,3.353c0.802,0.922,1.784,1.627,2.944,2.115
				S196.847,48.347,198.324,48.347z"/>
			<path d="M232.853,9.684c0.325,0.044,0.617,0.125,0.879,0.244c0.26,0.119,0.509,0.288,0.748,0.504
				c0.238,0.217,0.511,0.51,0.813,0.879l22.521,28.476c-0.087-0.911-0.152-1.794-0.196-2.651c-0.043-0.857-0.065-1.666-0.065-2.425
				V9.619h9.698v47.417h-5.728c-0.845,0-1.562-0.131-2.147-0.391c-0.586-0.261-1.151-0.737-1.692-1.433l-22.357-28.248
				c0.064,0.825,0.117,1.633,0.161,2.424c0.044,0.792,0.065,1.535,0.065,2.229v25.417h-9.698V9.619h5.794
				C232.126,9.619,232.528,9.641,232.853,9.684z"/>
			<path d="M306.924,44.767c0.26,0,0.521,0.049,0.78,0.146c0.26,0.097,0.509,0.266,0.749,0.504l4.36,4.589
				c-1.909,2.495-4.301,4.377-7.176,5.646s-6.276,1.904-10.203,1.904c-3.601,0-6.828-0.613-9.682-1.839
				c-2.853-1.226-5.271-2.918-7.257-5.077c-1.985-2.158-3.511-4.719-4.573-7.681c-1.063-2.961-1.594-6.177-1.594-9.649
				c0-3.536,0.606-6.785,1.821-9.747c1.215-2.962,2.913-5.517,5.094-7.665c2.182-2.147,4.789-3.818,7.828-5.012
				c3.036-1.193,6.389-1.79,10.056-1.79c1.777,0,3.454,0.158,5.028,0.472c1.572,0.315,3.042,0.749,4.409,1.302
				c1.366,0.553,2.625,1.215,3.774,1.985c1.151,0.771,2.17,1.623,3.06,2.555l-3.71,4.979c-0.24,0.304-0.521,0.581-0.847,0.83
				s-0.78,0.374-1.367,0.374c-0.391,0-0.759-0.086-1.106-0.26c-0.347-0.173-0.715-0.385-1.105-0.635
				c-0.391-0.249-0.819-0.521-1.286-0.813s-1.021-0.564-1.659-0.813c-0.64-0.25-1.39-0.46-2.245-0.634
				c-0.857-0.174-1.861-0.261-3.011-0.261c-1.996,0-3.819,0.353-5.467,1.058c-1.65,0.706-3.065,1.714-4.248,3.027
				c-1.182,1.313-2.104,2.902-2.766,4.768c-0.663,1.866-0.993,3.959-0.993,6.281c0,2.431,0.33,4.59,0.993,6.477
				c0.661,1.888,1.562,3.478,2.7,4.769c1.139,1.29,2.469,2.272,3.986,2.944c1.519,0.674,3.146,1.01,4.882,1.01
				c0.999,0,1.909-0.049,2.735-0.147c0.822-0.098,1.589-0.265,2.294-0.505c0.704-0.237,1.376-0.546,2.018-0.927
				c0.639-0.379,1.285-0.851,1.936-1.416c0.262-0.216,0.543-0.396,0.847-0.536C306.283,44.838,306.599,44.767,306.924,44.767z"/>
			<path d="M359.222,57.037h-11.065V36.989H328.89v20.048h-11.064V9.619h11.064v19.819h19.267V9.619h11.065V57.037z"/>
			<path d="M390.661,39.006v18.03h-11v-18.03L362.477,9.619h9.697c0.955,0,1.715,0.223,2.277,0.667
				c0.565,0.445,1.021,1.015,1.368,1.708l6.705,13.799c0.541,1.106,1.04,2.127,1.496,3.059c0.456,0.933,0.857,1.855,1.204,2.767
				c0.325-0.933,0.716-1.866,1.171-2.799c0.456-0.933,0.944-1.941,1.464-3.027l6.64-13.799c0.131-0.282,0.309-0.563,0.538-0.846
				c0.227-0.281,0.488-0.537,0.78-0.765c0.293-0.228,0.629-0.412,1.009-0.553c0.379-0.141,0.797-0.211,1.253-0.211h9.763
				L390.661,39.006z"/>
		</g>
		<g>
			<g>
				<path fill="#FFFFFF" d="M108.476,47.249h17.575v8.788H97.476V8.619h11V47.249z"/>
				<path fill="#FFFFFF" d="M175.388,56.037h-8.527c-0.955,0-1.742-0.223-2.36-0.667s-1.047-1.015-1.286-1.709l-2.799-8.267h-18.029
					l-2.798,8.267c-0.218,0.607-0.64,1.155-1.27,1.644c-0.629,0.487-1.399,0.732-2.311,0.732h-8.592l18.355-47.417h11.261
					L175.388,56.037z M144.925,37.909h12.953l-4.361-12.985c-0.282-0.825-0.613-1.795-0.992-2.913
					c-0.38-1.117-0.754-2.327-1.123-3.629c-0.348,1.324-0.706,2.55-1.074,3.678c-0.37,1.128-0.716,2.104-1.042,2.929L144.925,37.909
					z"/>
				<path fill="#FFFFFF" d="M197.324,47.347c1.475,0,2.793-0.244,3.953-0.732s2.144-1.188,2.945-2.1
					c0.803-0.911,1.415-2.022,1.838-3.336c0.424-1.312,0.636-2.804,0.636-4.475V8.619h11v28.085c0,2.907-0.472,5.577-1.416,8.006
					c-0.944,2.431-2.294,4.524-4.052,6.281c-1.758,1.758-3.894,3.125-6.411,4.101c-2.517,0.978-5.348,1.465-8.493,1.465
					c-3.169,0-6.011-0.487-8.527-1.465c-2.517-0.976-4.655-2.343-6.412-4.101c-1.757-1.757-3.103-3.851-4.035-6.281
					c-0.934-2.429-1.399-5.099-1.399-8.006V8.619h11v28.052c0,1.672,0.212,3.164,0.635,4.476c0.422,1.312,1.035,2.431,1.839,3.353
					c0.802,0.922,1.784,1.627,2.944,2.115C194.528,47.103,195.847,47.347,197.324,47.347z"/>
				<path fill="#FFFFFF" d="M231.853,8.684c0.325,0.044,0.617,0.125,0.879,0.244c0.26,0.119,0.509,0.288,0.748,0.504
					c0.238,0.217,0.511,0.51,0.813,0.879l22.521,28.476c-0.087-0.911-0.152-1.794-0.196-2.651c-0.043-0.857-0.065-1.666-0.065-2.425
					V8.619h9.698v47.417h-5.728c-0.845,0-1.562-0.131-2.147-0.391c-0.586-0.261-1.151-0.737-1.692-1.433l-22.357-28.248
					c0.064,0.825,0.117,1.633,0.161,2.424c0.044,0.792,0.065,1.535,0.065,2.229v25.417h-9.698V8.619h5.794
					C231.126,8.619,231.528,8.641,231.853,8.684z"/>
				<path fill="#FFFFFF" d="M305.924,43.767c0.26,0,0.521,0.049,0.78,0.146c0.26,0.097,0.509,0.266,0.749,0.504l4.36,4.589
					c-1.909,2.495-4.301,4.377-7.176,5.646s-6.276,1.904-10.203,1.904c-3.601,0-6.828-0.613-9.682-1.839
					c-2.853-1.226-5.271-2.918-7.257-5.077c-1.985-2.158-3.511-4.719-4.573-7.681c-1.063-2.961-1.594-6.177-1.594-9.649
					c0-3.536,0.606-6.785,1.821-9.747c1.215-2.962,2.913-5.517,5.094-7.665c2.182-2.147,4.789-3.818,7.828-5.012
					c3.036-1.193,6.389-1.79,10.056-1.79c1.777,0,3.454,0.158,5.028,0.472c1.572,0.315,3.042,0.749,4.409,1.302
					c1.366,0.553,2.625,1.215,3.774,1.985c1.151,0.771,2.17,1.623,3.06,2.555l-3.71,4.979c-0.24,0.304-0.521,0.581-0.847,0.83
					s-0.78,0.374-1.367,0.374c-0.391,0-0.759-0.086-1.106-0.26c-0.347-0.173-0.715-0.385-1.105-0.635
					c-0.391-0.249-0.819-0.521-1.286-0.813s-1.021-0.564-1.659-0.813c-0.64-0.25-1.39-0.46-2.245-0.634
					c-0.857-0.174-1.861-0.261-3.011-0.261c-1.996,0-3.819,0.353-5.467,1.058c-1.65,0.706-3.065,1.714-4.248,3.027
					c-1.182,1.313-2.104,2.902-2.766,4.768c-0.663,1.866-0.993,3.959-0.993,6.281c0,2.431,0.33,4.59,0.993,6.477
					c0.661,1.888,1.562,3.478,2.7,4.769c1.139,1.29,2.469,2.272,3.986,2.944c1.519,0.674,3.146,1.01,4.882,1.01
					c0.999,0,1.909-0.049,2.735-0.147c0.822-0.098,1.589-0.265,2.294-0.505c0.704-0.237,1.376-0.546,2.018-0.927
					c0.639-0.379,1.285-0.851,1.936-1.416c0.262-0.216,0.543-0.396,0.847-0.536C305.283,43.838,305.599,43.767,305.924,43.767z"/>
				<path fill="#FFFFFF" d="M358.222,56.037h-11.065V35.989H327.89v20.048h-11.064V8.619h11.064v19.819h19.267V8.619h11.065V56.037z
					"/>
				<path fill="#FFFFFF" d="M389.661,38.006v18.03h-11v-18.03L361.477,8.619h9.697c0.955,0,1.715,0.223,2.277,0.667
					c0.565,0.445,1.021,1.015,1.368,1.708l6.705,13.799c0.541,1.106,1.04,2.127,1.496,3.059c0.456,0.933,0.857,1.855,1.204,2.767
					c0.325-0.933,0.716-1.866,1.171-2.799c0.456-0.933,0.944-1.941,1.464-3.027l6.64-13.799c0.131-0.282,0.309-0.563,0.538-0.846
					c0.227-0.281,0.488-0.537,0.78-0.765c0.293-0.228,0.629-0.412,1.009-0.553c0.379-0.141,0.797-0.211,1.253-0.211h9.763
					L389.661,38.006z"/>
			</g>
		</g>
	</g>
</g>
</svg>
