<?xml version="1.0" encoding="UTF-8" standalone="no"?>
<!-- Created with Inkscape (http://www.inkscape.org/) -->

<svg
   xmlns:dc="http://purl.org/dc/elements/1.1/"
   xmlns:cc="http://creativecommons.org/ns#"
   xmlns:rdf="http://www.w3.org/1999/02/22-rdf-syntax-ns#"
   xmlns:svg="http://www.w3.org/2000/svg"
   xmlns="http://www.w3.org/2000/svg"
   xmlns:sodipodi="http://sodipodi.sourceforge.net/DTD/sodipodi-0.dtd"
   xmlns:inkscape="http://www.inkscape.org/namespaces/inkscape"
   width="3257.656"
   height="1135.3004"
   id="svg2"
   version="1.1"
   inkscape:version="0.48.4 r9939"
   sodipodi:docname="pichu.io.whitetext.svg"
   inkscape:export-filename="C:\Users\patrick.dahlke\Documents\MEGA\pichu.io\pichu128_whitetext.io.png"
   inkscape:export-xdpi="10.147095"
   inkscape:export-ydpi="10.147095">
  <defs
     id="defs4" />
  <sodipodi:namedview
     id="base"
     pagecolor="#ffffff"
     bordercolor="#666666"
     borderopacity="1.0"
     inkscape:pageopacity="0.0"
     inkscape:pageshadow="2"
     inkscape:zoom="0.35"
     inkscape:cx="1421.8452"
     inkscape:cy="764.82455"
     inkscape:document-units="px"
     inkscape:current-layer="layer4"
     showgrid="false"
     fit-margin-top="0"
     fit-margin-left="0"
     fit-margin-right="0"
     fit-margin-bottom="0"
     inkscape:window-width="1536"
     inkscape:window-height="877"
     inkscape:window-x="-8"
     inkscape:window-y="-8"
     inkscape:window-maximized="1" />
  <metadata
     id="metadata7">
    <rdf:RDF>
      <cc:Work
         rdf:about="">
        <dc:format>image/svg+xml</dc:format>
        <dc:type
           rdf:resource="http://purl.org/dc/dcmitype/StillImage" />
        <dc:title></dc:title>
      </cc:Work>
    </rdf:RDF>
  </metadata>
  <g
     inkscape:groupmode="layer"
     id="layer4"
     inkscape:label="Ebene"
     transform="translate(164.78084,124.1575)">
    <path
       sodipodi:type="arc"
       style="fill:#ffffff;fill-opacity:1;stroke:#ffffff;stroke-opacity:1"
       id="path3018"
       sodipodi:cx="524.28571"
       sodipodi:cy="524.92853"
       sodipodi:rx="518.57141"
       sodipodi:ry="518.57141"
       d="m 1042.8571,524.92853 c 0,286.39908 -232.17231,518.57137 -518.57139,518.57137 -286.39909,0 -518.5714156,-232.17229 -518.5714156,-518.57137 0,-286.39908 232.1723256,-518.5714133 518.5714156,-518.5714133 286.39908,0 518.57139,232.1723333 518.57139,518.5714133 z"
       transform="matrix(1.0935737,0,0,1.0935737,-170.48793,-130.54807)" />
    <text
       xml:space="preserve"
       style="font-size:40px;font-style:normal;font-weight:normal;line-height:125%;letter-spacing:0px;word-spacing:0px;fill:#000000;fill-opacity:1;stroke:none;font-family:Sans"
       x="1216.4835"
       y="599.00049"
       id="text3763"
       sodipodi:linespacing="125%"><tspan
         sodipodi:role="line"
         id="tspan3765"
         x="1216.4835"
         y="599.00049"
         style="font-size:550px;font-style:normal;font-variant:normal;font-weight:normal;font-stretch:normal;font-family:Arial;-inkscape-font-specification:Arial;fill:#ffffff;fill-opacity:1">pichu.io</tspan></text>
  </g>
  <g
     inkscape:label="Ebene 1"
     inkscape:groupmode="layer"
     id="layer1"
     transform="translate(-443.29056,93.723889)">
    <path
       style="fill:#000000;fill-opacity:1;stroke:#000000;stroke-width:1px;stroke-linecap:butt;stroke-linejoin:miter;stroke-opacity:1"
       d="m 1122.7846,247.77568 -13.6371,79.29697 222.7386,-70.71067 -29.2944,45.96194 54.0432,-10.10153 -123.7437,167.68532 80.3071,13.13199 178.2919,-291.42901 z"
       id="path3031"
       inkscape:connector-curvature="0" />
    <g
       id="g3012"
       style="fill:#000000;fill-opacity:1;stroke:#000000;stroke-opacity:1">
      <path
         inkscape:connector-curvature="0"
         id="path3029"
         d="m 1101.0714,837.71933 -8.9285,39.64285 55.3571,-15 85,69.64286 68.9286,-53.57143 -104.2857,-79.64286 z"
         style="fill:#000000;fill-opacity:1;stroke:#000000;stroke-width:1px;stroke-linecap:butt;stroke-linejoin:miter;stroke-opacity:1" />
      <path
         inkscape:connector-curvature="0"
         id="path3029-1"
         d="m 1210.9285,826.25503 -8.9285,39.64285 55.3571,-15 85,69.64282 68.9286,-53.57139 L 1307,787.32645 z"
         style="fill:#000000;fill-opacity:1;stroke:#000000;stroke-width:1px;stroke-linecap:butt;stroke-linejoin:miter;stroke-opacity:1" />
    </g>
    <path
       style="fill:#ffffff;fill-opacity:1;stroke:#ffffff;stroke-width:1px;stroke-linecap:butt;stroke-linejoin:miter;stroke-opacity:1"
       d="m 898.9095,1015.9614 -2.52538,-44.32047 23.35977,2.90419 -0.3788,-21.08693 50.12882,7.44987 z"
       id="path3790"
       inkscape:connector-curvature="0"
       transform="translate(443.28572,-93.709271)" />
  </g>
  <g
     inkscape:groupmode="layer"
     id="layer3"
     inkscape:label="hintergrund"
     transform="translate(164.78084,124.1575)" />
  <g
     inkscape:groupmode="layer"
     id="layer2"
     inkscape:label="2svg"
     transform="translate(-443.29056,93.723889)">
    <path
       style="fill:#37c871;fill-opacity:1;stroke:#37c871;stroke-width:1px;stroke-linecap:butt;stroke-linejoin:miter;stroke-opacity:1"
       d="m 655,35.93361 0.71429,80.71429 -47.14286,10.71428 L 655,149.50504 655,377.36218 739.28572,401.6479 721.42857,190.93361 765,237.36218 l 0.71429,-55 141.42857,126.42857 40,-62.14285 -187.85714,-135 -1.42858,-80.71429 -45,47.142857 z"
       id="path3017"
       inkscape:connector-curvature="0" />
    <path
       style="fill:#000000;fill-opacity:1;stroke:#000000;stroke-width:1px;stroke-linecap:butt;stroke-linejoin:miter;stroke-opacity:1"
       d="m 876.42857,685.21932 -13.57143,21.78572 13.92858,62.14286 52.14285,-41.78572 27.14286,20.71429 24.28571,-20.35715 39.28576,41.07143 43.2142,-57.5 -12.5,-18.21428 c -49.9918,9.56769 -105.89201,10.11716 -173.92853,-7.85715 z"
       id="path3019"
       inkscape:connector-curvature="0"
       sodipodi:nodetypes="cccccccccc" />
    <path
       style="fill:#ffde00;fill-opacity:1;stroke:#ffde00;stroke-width:1px;stroke-linecap:butt;stroke-linejoin:miter;stroke-opacity:1"
       d="m 810.71429,670.57647 c -21.8836,1.25299 -52.4521,10.27669 -57.85715,-3.21429 -2.4399,2.26421 -4.58084,5.72423 -6.07142,11.78572 -47.54018,12.43352 25.05133,48.32558 48.57142,70 C 788.44568,741.13188 645.6183,693.87958 740,670.21932 c 4.4952,-6.91676 7.74059,-16.95805 13.92857,-19.64285 9.27614,25.16716 37.36297,14.28051 56.78572,20 z"
       id="path3021"
       inkscape:connector-curvature="0"
       sodipodi:nodetypes="ccccccc" />
    <path
       style="fill:#000000;fill-opacity:1;stroke:#000000;stroke-width:1px;stroke-linecap:butt;stroke-linejoin:miter;stroke-opacity:1"
       d="m 1106.4286,708.07647 c 30.8779,19.45116 94.6866,52.23146 89.6428,57.14286 -38.3214,25.06601 3.3278,17.38906 -25.7143,29.28571 11.8228,-0.69949 22.2888,-2.56201 27.5,-8.92857 -5.4955,-1.54762 -7.4531,-3.09524 -8.2142,-4.64286 -2.2505,-3.85794 21.1767,-10.9089 23.5714,-18.57143 -0.6765,-21.70591 -70.3963,-37.44793 -106.7857,-54.28571 z"
       id="path3027"
       inkscape:connector-curvature="0"
       sodipodi:nodetypes="ccccccc" />
  </g>
</svg>
